# xmcd
# Track frame offsets:
# 150
# 13700
# 27025
# 46075
# 60430
# 73020
# 104820
# 117285
# 130593
# 141573
# 154910
# 170345
# 190883
# 202320
# 221408
# 236525
#
# Disc length: 3303 seconds
# Revision: 0
# Processed by: cddbd v1.4PL0 Copyright (c) Steve Scherf et al.
# Submitted via: VisiTrax 2.9.5.181 - For more info visit www.synapsa.com
#
DISCID=e80ce510
DTITLE=Various Artist - Contry Favourites CD2   - 4
DYEAR=1900
DGENRE=
TTITLE0=Tammy Wynette - Stand by your man
TTITLE1=Charlie Rich ( O´Dell) - Behind closed doors
TTITLE2=Tanya Tucker - Delta Dawn
TTITLE3=Freddy Fender - Jambalaya
TTITLE4=Lynn Anderson - I never promes you a rose garden
TTITLE5=Various Artist - Medley - Boxcar Willie
TTITLE6=Dottie West - Here comes my baby
TTITLE7=John Tillotson - Let it be me
TTITLE8=Bellamy Brothers - Let your love flow
TTITLE9=Kathy Mattea - Ball and chain
TTITLE10=Georg Jones - He stopped loving her today
TTITLE11=Nitty Gritty Dirt Band - MR Bojangles
TTITLE12=Jeannie C. Riley - Total woman
TTITLE13=Bertie Higgins - Key Largo
TTITLE14=Merle Haggard - Okie from Muskogee
TTITLE15=Faron Young - Wine Me Up
EXTD=
EXTT0=
EXTT1=
EXTT2=
EXTT3=
EXTT4=
EXTT5=
EXTT6=
EXTT7=
EXTT8=
EXTT9=
EXTT10=
EXTT11=
EXTT12=
EXTT13=
EXTT14=
EXTT15=
PLAYORDER=
